# xmcd CD database file
#
# Track frame offsets:
#	150
#	19257
#	39452
#
# Disc length: 779 seconds
#
# Revision: 3
# Processed by: cddbd v1.5.2PL0 Copyright (c) Steve Scherf et al.
# Submitted via: CDex 1.70beta2
#
DISCID=1c030903
DTITLE=TUBE - あの夏を探して
DYEAR=1995
DGENRE=JPop
TTITLE0=あの夏を探して
TTITLE1=君にSorry
TTITLE2=あの夏を探して(オリジナル・カラオケ)
EXTD=YEAR: 1995
EXTT0=
EXTT1=
EXTT2=
PLAYORDER=
